<?xml version="1.0" encoding="utf-8"?>
<!-- Generator: Adobe Illustrator 25.0.1, SVG Export Plug-In . SVG Version: 6.00 Build 0)  -->
<svg version="1.1" id="Layer_1" xmlns="http://www.w3.org/2000/svg" xmlns:xlink="http://www.w3.org/1999/xlink" x="0px" y="0px"
	 viewBox="0 0 450 365.3" style="enable-background:new 0 0 450 365.3;" xml:space="preserve">
<style type="text/css">
	.st0{fill:url(#SVGID_1_);stroke:url(#SVGID_2_);stroke-width:3;stroke-miterlimit:10;}
	.st1{fill:url(#SVGID_3_);stroke:url(#SVGID_4_);stroke-width:3;stroke-miterlimit:10;}
</style>
<g>
	<linearGradient id="SVGID_1_" gradientUnits="userSpaceOnUse" x1="335.47" y1="113.6998" x2="-12.9747" y2="285.6601">
		<stop  offset="0" style="stop-color:#FFFFFF;stop-opacity:0.1"/>
		<stop  offset="1" style="stop-color:#FFFFFF;stop-opacity:0.4"/>
	</linearGradient>
	<linearGradient id="SVGID_2_" gradientUnits="userSpaceOnUse" x1="0" y1="182.6363" x2="391.5666" y2="182.6363">
		<stop  offset="0" style="stop-color:#FFFFFF;stop-opacity:0.4"/>
		<stop  offset="1" style="stop-color:#FFFFFF;stop-opacity:0"/>
	</linearGradient>
	<path class="st0" d="M367.8,55.5H172.9c-8.6-2.8-14.3-8.8-18.8-17.3V23.8c0-12.3-10-22.3-22.3-22.3H23.8c-12.3,0-22.3,10-22.3,22.3
		v54v75.2v188.4c0,12.3,10,22.3,22.3,22.3h344c12.3,0,22.3-10,22.3-22.3V119.2V77.8C390.1,65.5,380.1,55.5,367.8,55.5z"/>
	<linearGradient id="SVGID_3_" gradientUnits="userSpaceOnUse" x1="220.694" y1="425.1486" x2="233.2548" y2="-19.9808">
		<stop  offset="0.1055" style="stop-color:#FFFFFF;stop-opacity:0"/>
		<stop  offset="0.6159" style="stop-color:#FFFFFF;stop-opacity:0.7"/>
	</linearGradient>
	<linearGradient id="SVGID_4_" gradientUnits="userSpaceOnUse" x1="1.7322" y1="241.173" x2="450.0388" y2="241.173">
		<stop  offset="0" style="stop-color:#FFFFFF;stop-opacity:0"/>
		<stop  offset="1" style="stop-color:#FFFFFF;stop-opacity:0.4"/>
	</linearGradient>
	<path class="st1" d="M90.9,119.2h335.4c16,0,25.5,13,21.3,29l-49.8,185.9c-4.3,16-20.8,29-36.8,29H25.5c-16,0-25.6-13-21.3-29
		l49.8-185.9C58.4,132.2,74.8,119.2,90.9,119.2z"/>
</g>
</svg>
