<?xml version="1.0" encoding="utf-8"?>
<!-- Generator: Adobe Illustrator 25.0.1, SVG Export Plug-In . SVG Version: 6.00 Build 0)  -->
<svg version="1.1" id="Layer_1" xmlns="http://www.w3.org/2000/svg" xmlns:xlink="http://www.w3.org/1999/xlink" x="0px" y="0px"
	 viewBox="0 0 457.04 372.27" style="enable-background:new 0 0 457.04 372.27;" xml:space="preserve">
<style type="text/css">
	.st0{fill:none;stroke:#000000;stroke-width:10;stroke-miterlimit:10;}
</style>
<path class="st0" d="M393.57,123.32v-42c0-12.3-9.97-22.28-22.28-22.28H176.44c-8.58-2.81-14.26-8.84-18.79-17.29V27.28
	c0-12.3-9.97-22.28-22.28-22.28H27.28C14.97,5,5,14.97,5,27.28v54.05v75.23V345c0,12.3,9.97,22.28,22.28,22.28h344.01"/>
<path class="st0" d="M94.38,123.32h335.37c16.03,0,25.55,13,21.25,29.03L401.2,338.24c-4.3,16.03-20.78,29.03-36.81,29.03H29.02
	c-16.03,0-25.55-13-21.25-29.03l49.81-185.88C61.87,136.32,78.35,123.32,94.38,123.32z"/>
</svg>
