<?xml version="1.0" encoding="utf-8"?>
<!-- Generator: Adobe Illustrator 25.0.1, SVG Export Plug-In . SVG Version: 6.00 Build 0)  -->
<svg version="1.1" id="Layer_1" xmlns="http://www.w3.org/2000/svg" xmlns:xlink="http://www.w3.org/1999/xlink" x="0px" y="0px"
	 viewBox="0 0 452 367.3" style="enable-background:new 0 0 452 367.3;" xml:space="preserve">
<style type="text/css">
	.st0{fill:none;stroke:#000000;stroke-width:5;stroke-miterlimit:10;}
</style>
<g>
	<path class="st0" d="M391.1,120.8v-42c0-12.3-10-22.3-22.3-22.3H173.9c-8.6-2.8-14.3-8.8-18.8-17.3V24.8c0-12.3-10-22.3-22.3-22.3
		H24.8c-12.3,0-22.3,10-22.3,22.3v54.1v75.2v188.4c0,12.3,10,22.3,22.3,22.3h344"/>
	<path class="st0" d="M91.9,120.8h335.4c16,0,25.5,13,21.2,29l-49.8,185.9c-4.3,16-20.8,29-36.8,29H26.5c-16,0-25.5-13-21.2-29
		l49.8-185.9C59.4,133.8,75.8,120.8,91.9,120.8z"/>
</g>
</svg>
