<?xml version="1.0" encoding="utf-8"?>
<!-- Generator: Adobe Illustrator 25.0.1, SVG Export Plug-In . SVG Version: 6.00 Build 0)  -->
<svg version="1.1" id="Layer_1" xmlns="http://www.w3.org/2000/svg" xmlns:xlink="http://www.w3.org/1999/xlink" x="0px" y="0px"
	 viewBox="0 0 449.04 364.27" style="enable-background:new 0 0 449.04 364.27;" xml:space="preserve">
<style type="text/css">
	.st0{fill:url(#SVGID_1_);stroke:url(#SVGID_2_);stroke-width:2;stroke-miterlimit:10;}
	.st1{fill:url(#SVGID_3_);stroke:url(#SVGID_4_);stroke-width:2;stroke-miterlimit:10;}
</style>
<g>
	<linearGradient id="SVGID_1_" gradientUnits="userSpaceOnUse" x1="334.97" y1="113.1998" x2="-13.4747" y2="285.1601">
		<stop  offset="0" style="stop-color:#FFFFFF;stop-opacity:0.1"/>
		<stop  offset="1" style="stop-color:#FFFFFF;stop-opacity:0.4"/>
	</linearGradient>
	<linearGradient id="SVGID_2_" gradientUnits="userSpaceOnUse" x1="0" y1="182.1363" x2="390.5666" y2="182.1363">
		<stop  offset="0" style="stop-color:#FFFFFF;stop-opacity:0.4"/>
		<stop  offset="1" style="stop-color:#FFFFFF;stop-opacity:0"/>
	</linearGradient>
	<path class="st0" d="M367.29,55.05H172.44c-8.58-2.81-14.26-8.84-18.79-17.29V23.28c0-12.3-9.97-22.28-22.28-22.28H23.28
		C10.97,1,1,10.97,1,23.28v54.05v75.23V341c0,12.3,9.97,22.28,22.28,22.28h344.01c12.3,0,22.28-9.97,22.28-22.28V118.7V77.33
		C389.57,65.02,379.59,55.05,367.29,55.05z"/>
	<linearGradient id="SVGID_3_" gradientUnits="userSpaceOnUse" x1="220.194" y1="424.6486" x2="232.7548" y2="-20.4808">
		<stop  offset="0.1055" style="stop-color:#FFFFFF;stop-opacity:0"/>
		<stop  offset="0.6159" style="stop-color:#FFFFFF;stop-opacity:0.7"/>
	</linearGradient>
	<linearGradient id="SVGID_4_" gradientUnits="userSpaceOnUse" x1="1.7322" y1="240.673" x2="449.0388" y2="240.673">
		<stop  offset="0" style="stop-color:#FFFFFF;stop-opacity:0"/>
		<stop  offset="1" style="stop-color:#FFFFFF;stop-opacity:0.4"/>
	</linearGradient>
	<path class="st1" d="M90.38,118.7h335.37c16.03,0,25.55,13,21.25,29.03L397.2,333.61c-4.3,16.03-20.78,29.03-36.81,29.03H25.02
		c-16.03,0-25.55-13-21.25-29.03l49.81-185.88C57.87,131.7,74.35,118.7,90.38,118.7z"/>
</g>
</svg>
