<?xml version="1.0" encoding="utf-8"?>
<!-- Generator: Adobe Illustrator 25.0.1, SVG Export Plug-In . SVG Version: 6.00 Build 0)  -->
<svg version="1.1" id="Layer_1" xmlns="http://www.w3.org/2000/svg" xmlns:xlink="http://www.w3.org/1999/xlink" x="0px" y="0px"
	 viewBox="0 0 424.8 424.8" style="enable-background:new 0 0 424.8 424.8;" xml:space="preserve">
<style type="text/css">
	.st0{fill:none;stroke:#000000;stroke-width:5;stroke-miterlimit:10;}
</style>
<path class="st0" d="M422.3,240.7v-56.5c-28.9-10.3-47.1-13.2-56.3-35.3v0c-9.2-22.2,1.7-37.3,14.8-64.8l-40-40
	c-27.3,13-42.6,24-64.8,14.8h0c-22.2-9.2-25.1-27.6-35.3-56.3h-56.5c-10.2,28.6-13.1,47.1-35.3,56.3h0C126.6,68,111.5,57.1,84,44
	L44,84c13,27.4,24,42.6,14.8,64.8c-9.2,22.2-27.7,25.2-56.3,35.3v56.5C31,250.8,49.6,253.8,58.8,276c9.3,22.4-2,37.9-14.8,64.8
	l40,40c27.3-13,42.6-24,64.8-14.8h0c22.2,9.2,25.1,27.6,35.3,56.3h56.5c10.2-28.6,13.1-47,35.5-56.4h0c22.1-9.2,37.1,1.8,64.7,14.9
	l40-40c-13-27.3-24-42.6-14.8-64.8C375.2,253.8,393.7,250.8,422.3,240.7z M212.4,282.3c-38.6,0-70-31.3-70-70s31.3-70,70-70
	s70,31.3,70,70S251,282.3,212.4,282.3z"/>
</svg>
