<?xml version="1.0" encoding="utf-8"?>
<!-- Generator: Adobe Illustrator 25.0.1, SVG Export Plug-In . SVG Version: 6.00 Build 0)  -->
<svg version="1.1" id="Layer_1" xmlns="http://www.w3.org/2000/svg" xmlns:xlink="http://www.w3.org/1999/xlink" x="0px" y="0px"
	 viewBox="0 0 198.25 361.25" style="enable-background:new 0 0 198.25 361.25;" xml:space="preserve">
<style type="text/css">
	.st0{fill:none;stroke:#000000;stroke-width:2;stroke-miterlimit:10;}
</style>
<g>
	<path class="st0" d="M162.38,360.25H35.88C16.61,360.25,1,344.64,1,325.37V35.88C1,16.61,16.61,1,35.88,1h126.5
		c19.26,0,34.88,15.61,34.88,34.88v289.5C197.25,344.64,181.64,360.25,162.38,360.25z"/>
	<path class="st0" d="M10.08,325.06V36.19c0-10.16,8.24-18.39,18.39-18.39h141.31c10.16,0,18.39,8.24,18.39,18.39v288.87
		c0,10.16-8.24,18.39-18.39,18.39H28.47C18.31,343.45,10.08,335.22,10.08,325.06z"/>
	<path class="st0" d="M166.92,308.09H31.33c-1.18,0-2.14-1.77-2.14-3.96V57.12c0-2.18,0.96-3.96,2.14-3.96h135.59
		c1.18,0,2.14,1.77,2.14,3.96v247.02C169.06,306.31,168.1,308.09,166.92,308.09z M31.33,54.18c-0.88,0-1.59,1.32-1.59,2.94v247.02
		c0,1.62,0.71,2.94,1.59,2.94h135.59c0.88,0,1.59-1.32,1.59-2.94V57.12c0-1.62-0.71-2.94-1.59-2.94H31.33z"/>
	<path class="st0" d="M50.45,244.37V116.88c0-4.9,3.97-8.87,8.87-8.87h79.62c4.9,0,8.87,3.97,8.87,8.87v127.49
		c0,4.9-3.97,8.87-8.87,8.87H59.32C54.42,253.24,50.45,249.27,50.45,244.37z"/>
</g>
<g>
	<path class="st0" d="M143.25,115.72v128.67c0,3.18-2.64,5.79-5.88,5.79h-76.5c-3.23,0-5.87-2.6-5.87-5.79V115.72
		c0-3.19,2.64-5.8,5.87-5.8h76.5C140.61,109.92,143.25,112.52,143.25,115.72z"/>
	<path class="st0" d="M143.25,115.72v115.54c0,3.18-2.64,5.8-5.88,5.8h-76.5c-3.23,0-5.87-2.61-5.87-5.8V115.72
		c0-3.19,2.64-5.8,5.87-5.8h76.5C140.61,109.92,143.25,112.52,143.25,115.72z"/>
	<path class="st0" d="M143.25,115.72v112.71c0,3.18-2.64,5.79-5.88,5.79h-76.5c-3.23,0-5.87-2.6-5.87-5.79V115.72
		c0-3.19,2.64-5.8,5.87-5.8h76.5C140.61,109.92,143.25,112.52,143.25,115.72z"/>
</g>
</svg>
