<?xml version="1.0" encoding="utf-8"?>
<!-- Generator: Adobe Illustrator 25.0.1, SVG Export Plug-In . SVG Version: 6.00 Build 0)  -->
<svg version="1.1" id="Layer_1" xmlns="http://www.w3.org/2000/svg" xmlns:xlink="http://www.w3.org/1999/xlink" x="0px" y="0px"
	 viewBox="0 0 196.25 359.25" style="enable-background:new 0 0 196.25 359.25;" xml:space="preserve">
<style type="text/css">
	.st0{fill:url(#SVGID_1_);}
	.st1{fill:#F7F7F7;}
	.st2{fill:#D8DADE;}
	.st3{fill:#95999B;}
	.st4{fill:#DEE2E5;}
	.st5{fill:url(#SVGID_2_);}
</style>
<g>
	<linearGradient id="SVGID_1_" gradientUnits="userSpaceOnUse" x1="0" y1="179.6249" x2="196.2538" y2="179.6249">
		<stop  offset="0" style="stop-color:#DFE6E6"/>
		<stop  offset="1" style="stop-color:#BCBFC3"/>
	</linearGradient>
	<path class="st0" d="M161.38,359.25H34.88C15.61,359.25,0,343.64,0,324.37V34.88C0,15.61,15.61,0,34.88,0h126.5
		c19.26,0,34.88,15.61,34.88,34.88v289.5C196.25,343.64,180.64,359.25,161.38,359.25z"/>
	<path class="st1" d="M9.08,324.06V35.19c0-10.16,8.24-18.39,18.39-18.39h141.31c10.16,0,18.39,8.24,18.39,18.39v288.87
		c0,10.16-8.24,18.39-18.39,18.39H27.47C17.31,342.45,9.08,334.22,9.08,324.06z"/>
	<path class="st2" d="M10.27,324.02V35.23C10.27,26.27,17.54,19,26.5,19h143.25c8.97,0,16.23,7.27,16.23,16.23v288.79
		c0,8.97-7.27,16.23-16.23,16.23H26.5C17.54,340.25,10.27,332.98,10.27,324.02z"/>
	<path class="st3" d="M165.92,307.09H30.33c-1.18,0-2.14-1.77-2.14-3.96V56.12c0-2.18,0.96-3.96,2.14-3.96h135.59
		c1.18,0,2.14,1.77,2.14,3.96v247.02C168.06,305.31,167.1,307.09,165.92,307.09z M30.33,53.18c-0.88,0-1.59,1.32-1.59,2.94v247.02
		c0,1.62,0.71,2.94,1.59,2.94h135.59c0.88,0,1.59-1.32,1.59-2.94V56.12c0-1.62-0.71-2.94-1.59-2.94H30.33z"/>
	<path class="st3" d="M49.45,243.37V115.88c0-4.9,3.97-8.87,8.87-8.87h79.62c4.9,0,8.87,3.97,8.87,8.87v127.49
		c0,4.9-3.97,8.87-8.87,8.87H58.32C53.42,252.24,49.45,248.27,49.45,243.37z"/>
</g>
<g>
	<path class="st4" d="M54,243.38V114.71c0-3.18,2.64-5.79,5.88-5.79h76.5c3.23,0,5.87,2.6,5.87,5.79v128.67
		c0,3.19-2.64,5.8-5.87,5.8h-76.5C56.64,249.18,54,246.58,54,243.38z"/>
	<path class="st1" d="M54,243.38V127.84c0-3.18,2.64-5.8,5.88-5.8h76.5c3.23,0,5.87,2.61,5.87,5.8v115.54c0,3.19-2.64,5.8-5.87,5.8
		h-76.5C56.64,249.18,54,246.58,54,243.38z"/>
	<linearGradient id="SVGID_2_" gradientUnits="userSpaceOnUse" x1="98.1269" y1="229.8376" x2="98.1269" y2="139.8978">
		<stop  offset="0.0441" style="stop-color:#D7D9DD"/>
		<stop  offset="0.7155" style="stop-color:#C7C9CD"/>
	</linearGradient>
	<path class="st5" d="M54,243.38V130.67c0-3.18,2.64-5.79,5.88-5.79h76.5c3.23,0,5.87,2.6,5.87,5.79v112.71
		c0,3.19-2.64,5.8-5.87,5.8h-76.5C56.64,249.18,54,246.58,54,243.38z"/>
</g>
</svg>
