<?xml version="1.0" encoding="utf-8"?>
<!-- Generator: Adobe Illustrator 25.0.1, SVG Export Plug-In . SVG Version: 6.00 Build 0)  -->
<svg version="1.1" id="Layer_1" xmlns="http://www.w3.org/2000/svg" xmlns:xlink="http://www.w3.org/1999/xlink" x="0px" y="0px"
	 viewBox="0 0 487 373.2" style="enable-background:new 0 0 487 373.2;" xml:space="preserve">
<style type="text/css">
	.st0{fill:none;stroke:#000000;stroke-width:5;stroke-miterlimit:10;}
</style>
<path class="st0" d="M484.5,42.9v287.4c0,13.9-5.9,26.2-14.9,33.5c-5.4,4.4-11.9,6.9-18.9,6.9H36.3c-6.4,0-12.5-2.2-17.6-6
	C9,357.6,2.5,344.8,2.5,330.3V42.9c0-8.7,2.3-16.8,6.3-23.4C15,9.2,25,2.5,36.3,2.5h414.4c11.8,0,22.3,7.3,28.3,18.4
	C482.5,27.2,484.5,34.8,484.5,42.9z"/>
<path class="st0" d="M278.9,252.2c-10.3,12.6-58.5,12.6-68.8,0c-10.5-8.8-28.6-28.7-52.1-55.8L18.7,364.7c5.1,3.8,11.2,6,17.6,6
	h414.4c7,0,13.5-2.6,18.9-6.9L331,196.4C307.6,223.5,289.4,243.3,278.9,252.2z"/>
<path class="st0" d="M479,20.9c-91,107.3-172.3,207.9-200.1,231.3c-10.3,12.6-58.5,12.6-68.8,0C182.2,228.7,100.3,127.3,8.8,19.5
	C15,9.2,25,2.5,36.3,2.5h414.4C462.5,2.5,473,9.8,479,20.9z"/>
</svg>
