<?xml version="1.0" encoding="utf-8"?>
<!-- Generator: Adobe Illustrator 25.0.1, SVG Export Plug-In . SVG Version: 6.00 Build 0)  -->
<svg version="1.1" id="Layer_1" xmlns="http://www.w3.org/2000/svg" xmlns:xlink="http://www.w3.org/1999/xlink" x="0px" y="0px"
	 viewBox="0 0 485 371.2" style="enable-background:new 0 0 485 371.2;" xml:space="preserve">
<style type="text/css">
	.st0{fill:url(#SVGID_1_);stroke:url(#SVGID_2_);stroke-width:3;stroke-miterlimit:10;}
	.st1{fill:url(#SVGID_3_);stroke:url(#SVGID_4_);stroke-width:3;stroke-miterlimit:10;}
	.st2{fill:url(#SVGID_5_);stroke:url(#SVGID_6_);stroke-width:3;stroke-miterlimit:10;}
</style>
<linearGradient id="SVGID_1_" gradientUnits="userSpaceOnUse" x1="242.5144" y1="-17.9056" x2="242.5144" y2="557.9694">
	<stop  offset="0" style="stop-color:#FFFFFF;stop-opacity:0"/>
	<stop  offset="0.6967" style="stop-color:#FFFFFF;stop-opacity:0.7"/>
</linearGradient>
<linearGradient id="SVGID_2_" gradientUnits="userSpaceOnUse" x1="0" y1="185.5912" x2="485.0288" y2="185.5912">
	<stop  offset="0" style="stop-color:#FFFFFF;stop-opacity:0"/>
	<stop  offset="1" style="stop-color:#FFFFFF;stop-opacity:0.4"/>
</linearGradient>
<path class="st0" d="M483.5,41.9v287.4c0,13.9-5.9,26.2-14.9,33.5c-5.4,4.4-11.9,6.9-18.9,6.9H35.3c-6.4,0-12.5-2.2-17.6-6
	C8,356.6,1.5,343.8,1.5,329.3V41.9c0-8.7,2.3-16.8,6.3-23.4C14,8.2,24,1.5,35.3,1.5h414.4c11.8,0,22.3,7.3,28.3,18.4
	C481.5,26.2,483.5,33.8,483.5,41.9z"/>
<linearGradient id="SVGID_3_" gradientUnits="userSpaceOnUse" x1="243.1407" y1="188.2516" x2="243.1407" y2="636.5587">
	<stop  offset="0.1055" style="stop-color:#FFFFFF;stop-opacity:0"/>
	<stop  offset="0.4492" style="stop-color:#FFFFFF;stop-opacity:0.7"/>
</linearGradient>
<linearGradient id="SVGID_4_" gradientUnits="userSpaceOnUse" x1="15.5226" y1="282.1206" x2="470.7151" y2="282.1206">
	<stop  offset="0" style="stop-color:#FFFFFF;stop-opacity:0"/>
	<stop  offset="1" style="stop-color:#FFFFFF;stop-opacity:0.4"/>
</linearGradient>
<path class="st1" d="M277.9,251.2c-10.3,12.6-58.5,12.6-68.8,0c-10.5-8.8-28.6-28.7-52.1-55.8L17.7,363.7c5.1,3.8,11.2,6,17.6,6
	h414.4c7,0,13.5-2.6,18.9-6.9L330,195.4C306.6,222.5,288.4,242.3,277.9,251.2z"/>
<linearGradient id="SVGID_5_" gradientUnits="userSpaceOnUse" x1="242.93" y1="351.3257" x2="242.93" y2="-210.4094">
	<stop  offset="0.1055" style="stop-color:#FFFFFF;stop-opacity:0"/>
	<stop  offset="0.6159" style="stop-color:#FFFFFF;stop-opacity:0.7"/>
</linearGradient>
<linearGradient id="SVGID_6_" gradientUnits="userSpaceOnUse" x1="5.9953" y1="131.0457" x2="479.837" y2="131.0457">
	<stop  offset="0" style="stop-color:#FFFFFF;stop-opacity:0"/>
	<stop  offset="1" style="stop-color:#FFFFFF;stop-opacity:0.4"/>
</linearGradient>
<path class="st2" d="M478,19.9c-91,107.3-172.3,207.9-200.1,231.3c-10.3,12.6-58.5,12.6-68.8,0C181.2,227.7,99.3,126.3,7.8,18.5
	C14,8.2,24,1.5,35.3,1.5h414.4C461.5,1.5,472,8.8,478,19.9z"/>
</svg>
