<?xml version="1.0" encoding="utf-8"?>
<!-- Generator: Adobe Illustrator 25.0.1, SVG Export Plug-In . SVG Version: 6.00 Build 0)  -->
<svg version="1.1" id="Layer_1" xmlns="http://www.w3.org/2000/svg" xmlns:xlink="http://www.w3.org/1999/xlink" x="0px" y="0px"
	 viewBox="0 0 350.1 472.8" style="enable-background:new 0 0 350.1 472.8;" xml:space="preserve">
<style type="text/css">
	.st0{fill:none;stroke:#000000;stroke-width:5;stroke-miterlimit:10;}
</style>
<g>
	<path class="st0" d="M316.8,49.1h-7.3v34.4c0,10.4-8.5,18.9-18.9,18.9h0c-10.4,0-18.9-8.5-18.9-18.9V49.1h-39.3v34.4
		c0,10.4-8.5,18.9-18.9,18.9h0c-10.4,0-18.9-8.5-18.9-18.9V49.1h-39.3v34.4c0,10.4-8.5,18.9-18.9,18.9h0c-10.4,0-18.9-8.5-18.9-18.9
		V49.1H78.3v34.4c0,10.4-8.5,18.9-18.9,18.9h0c-10.4,0-18.9-8.5-18.9-18.9V49.1h-7.3c-16.9,0-30.7,13.8-30.7,30.7v359.7
		c0,16.9,13.8,30.7,30.7,30.7h283.6c16.9,0,30.7-13.8,30.7-30.7V79.8C347.6,62.9,333.7,49.1,316.8,49.1z"/>
	<rect x="56.9" y="181.8" class="st0" width="236.4" height="20.1"/>
	<rect x="56.9" y="240" class="st0" width="236.4" height="20.1"/>
	<rect x="56.9" y="298.2" class="st0" width="236.4" height="20.1"/>
	<path class="st0" d="M60,95.7h-2.6c-6.9,0-12.5-5.6-12.5-12.5V15c0-6.9,5.6-12.5,12.5-12.5H60c6.9,0,12.5,5.6,12.5,12.5v68.3
		C72.5,90.1,66.9,95.7,60,95.7z"/>
	<path class="st0" d="M137.4,95.7h-2.6c-6.9,0-12.5-5.6-12.5-12.5V15c0-6.9,5.6-12.5,12.5-12.5h2.6c6.9,0,12.5,5.6,12.5,12.5v68.3
		C149.9,90.1,144.3,95.7,137.4,95.7z"/>
	<path class="st0" d="M214.7,95.7h-2.6c-6.9,0-12.5-5.6-12.5-12.5V15c0-6.9,5.6-12.5,12.5-12.5h2.6c6.9,0,12.5,5.6,12.5,12.5v68.3
		C227.1,90.1,221.5,95.7,214.7,95.7z"/>
	<path class="st0" d="M291.9,95.7h-2.6c-6.9,0-12.5-5.6-12.5-12.5V15c0-6.9,5.6-12.5,12.5-12.5h2.6c6.9,0,12.5,5.6,12.5,12.5v68.3
		C304.3,90.1,298.7,95.7,291.9,95.7z"/>
	<rect x="56.9" y="356.4" class="st0" width="236.4" height="20.1"/>
</g>
</svg>
