<?xml version="1.0" encoding="utf-8"?>
<!-- Generator: Adobe Illustrator 25.0.1, SVG Export Plug-In . SVG Version: 6.00 Build 0)  -->
<svg version="1.1" id="Layer_1" xmlns="http://www.w3.org/2000/svg" xmlns:xlink="http://www.w3.org/1999/xlink" x="0px" y="0px"
	 viewBox="0 0 385.25 521.5" style="enable-background:new 0 0 385.25 521.5;" xml:space="preserve">
<style type="text/css">
	.st0{fill:url(#SVGID_1_);stroke:url(#SVGID_2_);stroke-width:2;stroke-miterlimit:10;}
	.st1{fill:url(#SVGID_3_);}
	.st2{fill:url(#SVGID_4_);}
	.st3{fill:url(#SVGID_5_);}
	.st4{fill:url(#SVGID_6_);stroke:url(#SVGID_7_);stroke-width:2;stroke-miterlimit:10;}
	.st5{fill:url(#SVGID_8_);stroke:url(#SVGID_9_);stroke-width:2;stroke-miterlimit:10;}
	.st6{fill:url(#SVGID_10_);stroke:url(#SVGID_11_);stroke-width:2;stroke-miterlimit:10;}
	.st7{fill:url(#SVGID_12_);stroke:url(#SVGID_13_);stroke-width:2;stroke-miterlimit:10;}
	.st8{fill:url(#SVGID_14_);}
</style>
<g>
	<linearGradient id="SVGID_1_" gradientUnits="userSpaceOnUse" x1="190.157" y1="531.699" x2="195.1882" y2="32.0926">
		<stop  offset="0" style="stop-color:#FFFFFF;stop-opacity:0"/>
		<stop  offset="1" style="stop-color:#FFFFFF;stop-opacity:0.7"/>
	</linearGradient>
	<linearGradient id="SVGID_2_" gradientUnits="userSpaceOnUse" x1="0" y1="286.625" x2="385.25" y2="286.625">
		<stop  offset="0" style="stop-color:#FFFFFF;stop-opacity:0"/>
		<stop  offset="1" style="stop-color:#FFFFFF;stop-opacity:0.4"/>
	</linearGradient>
	<path class="st0" d="M350.12,52.75h-8.05V91c0,11.55-9.45,21-21,21h0c-11.55,0-21-9.45-21-21V52.75h-43.63V91
		c0,11.55-9.45,21-21,21h0c-11.55,0-21-9.45-21-21V52.75h-43.63V91c0,11.55-9.45,21-21,21h0c-11.55,0-21-9.45-21-21V52.75H85.18V91
		c0,11.55-9.45,21-21,21h0c-11.55,0-21-9.45-21-21V52.75h-8.05C16.36,52.75,1,68.11,1,86.88v399.5c0,18.77,15.36,34.12,34.12,34.12
		h315c18.77,0,34.12-15.36,34.12-34.12V86.88C384.25,68.11,368.89,52.75,350.12,52.75z"/>
	<linearGradient id="SVGID_3_" gradientUnits="userSpaceOnUse" x1="61.375" y1="211.3595" x2="323.875" y2="211.3595">
		<stop  offset="0.1055" style="stop-color:#1A1A1A;stop-opacity:0.4"/>
		<stop  offset="0.6159" style="stop-color:#1A1A1A;stop-opacity:0.8"/>
	</linearGradient>
	<rect x="61.38" y="200.17" class="st1" width="262.5" height="22.38"/>
	<linearGradient id="SVGID_4_" gradientUnits="userSpaceOnUse" x1="61.375" y1="275.9844" x2="323.875" y2="275.9844">
		<stop  offset="0.1055" style="stop-color:#1A1A1A;stop-opacity:0.4"/>
		<stop  offset="0.6159" style="stop-color:#1A1A1A;stop-opacity:0.8"/>
	</linearGradient>
	<rect x="61.38" y="264.8" class="st2" width="262.5" height="22.38"/>
	<linearGradient id="SVGID_5_" gradientUnits="userSpaceOnUse" x1="61.375" y1="340.6093" x2="323.875" y2="340.6093">
		<stop  offset="0.1055" style="stop-color:#1A1A1A;stop-opacity:0.4"/>
		<stop  offset="0.6159" style="stop-color:#1A1A1A;stop-opacity:0.8"/>
	</linearGradient>
	<rect x="61.38" y="329.42" class="st3" width="262.5" height="22.38"/>
	<linearGradient id="SVGID_6_" gradientUnits="userSpaceOnUse" x1="45.1695" y1="52.75" x2="75.7097" y2="52.75">
		<stop  offset="0" style="stop-color:#FFFFFF;stop-opacity:0"/>
		<stop  offset="1" style="stop-color:#FFFFFF;stop-opacity:0.7"/>
	</linearGradient>
	<linearGradient id="SVGID_7_" gradientUnits="userSpaceOnUse" x1="47.1695" y1="52.75" x2="79.7097" y2="52.75">
		<stop  offset="0" style="stop-color:#FFFFFF;stop-opacity:0"/>
		<stop  offset="0.4072" style="stop-color:#FFFFFF;stop-opacity:0.4"/>
	</linearGradient>
	<path class="st4" d="M66.25,104.5h-5.63c-6.85,0-12.46-5.61-12.46-12.46V13.46C48.17,6.61,53.78,1,60.63,1h5.63
		c6.85,0,12.46,5.61,12.46,12.46v78.58C78.71,98.89,73.1,104.5,66.25,104.5z"/>
	<linearGradient id="SVGID_8_" gradientUnits="userSpaceOnUse" x1="131.1695" y1="52.75" x2="161.7097" y2="52.75">
		<stop  offset="0" style="stop-color:#FFFFFF;stop-opacity:0"/>
		<stop  offset="1" style="stop-color:#FFFFFF;stop-opacity:0.7"/>
	</linearGradient>
	<linearGradient id="SVGID_9_" gradientUnits="userSpaceOnUse" x1="133.1695" y1="52.75" x2="165.7097" y2="52.75">
		<stop  offset="0" style="stop-color:#FFFFFF;stop-opacity:0"/>
		<stop  offset="0.4072" style="stop-color:#FFFFFF;stop-opacity:0.4"/>
	</linearGradient>
	<path class="st5" d="M152.25,104.5h-5.63c-6.85,0-12.46-5.61-12.46-12.46V13.46c0-6.85,5.61-12.46,12.46-12.46h5.63
		c6.85,0,12.46,5.61,12.46,12.46v78.58C164.71,98.89,159.1,104.5,152.25,104.5z"/>
	<linearGradient id="SVGID_10_" gradientUnits="userSpaceOnUse" x1="216.9195" y1="52.75" x2="247.4597" y2="52.75">
		<stop  offset="0" style="stop-color:#FFFFFF;stop-opacity:0"/>
		<stop  offset="1" style="stop-color:#FFFFFF;stop-opacity:0.7"/>
	</linearGradient>
	<linearGradient id="SVGID_11_" gradientUnits="userSpaceOnUse" x1="218.9195" y1="52.75" x2="251.4597" y2="52.75">
		<stop  offset="0" style="stop-color:#FFFFFF;stop-opacity:0"/>
		<stop  offset="0.4072" style="stop-color:#FFFFFF;stop-opacity:0.4"/>
	</linearGradient>
	<path class="st6" d="M238,104.5h-5.63c-6.85,0-12.46-5.61-12.46-12.46V13.46c0-6.85,5.61-12.46,12.46-12.46H238
		c6.85,0,12.46,5.61,12.46,12.46v78.58C250.46,98.89,244.85,104.5,238,104.5z"/>
	<linearGradient id="SVGID_12_" gradientUnits="userSpaceOnUse" x1="302.6695" y1="52.75" x2="333.2097" y2="52.75">
		<stop  offset="0" style="stop-color:#FFFFFF;stop-opacity:0"/>
		<stop  offset="1" style="stop-color:#FFFFFF;stop-opacity:0.7"/>
	</linearGradient>
	<linearGradient id="SVGID_13_" gradientUnits="userSpaceOnUse" x1="304.6695" y1="52.75" x2="337.2097" y2="52.75">
		<stop  offset="0" style="stop-color:#FFFFFF;stop-opacity:0"/>
		<stop  offset="0.4072" style="stop-color:#FFFFFF;stop-opacity:0.4"/>
	</linearGradient>
	<path class="st7" d="M323.75,104.5h-5.63c-6.85,0-12.46-5.61-12.46-12.46V13.46c0-6.85,5.61-12.46,12.46-12.46h5.63
		c6.85,0,12.46,5.61,12.46,12.46v78.58C336.21,98.89,330.6,104.5,323.75,104.5z"/>
	<linearGradient id="SVGID_14_" gradientUnits="userSpaceOnUse" x1="61.375" y1="405.2342" x2="323.875" y2="405.2342">
		<stop  offset="0.1055" style="stop-color:#1A1A1A;stop-opacity:0.4"/>
		<stop  offset="0.6159" style="stop-color:#1A1A1A;stop-opacity:0.8"/>
	</linearGradient>
	<rect x="61.38" y="394.05" class="st8" width="262.5" height="22.38"/>
</g>
</svg>
