<?xml version="1.0" encoding="utf-8"?>
<!-- Generator: Adobe Illustrator 25.0.1, SVG Export Plug-In . SVG Version: 6.00 Build 0)  -->
<svg version="1.1" id="Layer_1" xmlns="http://www.w3.org/2000/svg" xmlns:xlink="http://www.w3.org/1999/xlink" x="0px" y="0px"
	 viewBox="0 0 389.24 525.5" style="enable-background:new 0 0 389.24 525.5;" xml:space="preserve">
<style type="text/css">
	.st0{fill:none;stroke:#000000;stroke-width:6;stroke-miterlimit:10;}
</style>
<g>
	<path class="st0" d="M352.12,54.75h-8.05V93c0,11.55-9.45,21-21,21l0,0c-11.55,0-21-9.45-21-21V54.75h-43.63V93
		c0,11.55-9.45,21-21,21l0,0c-11.55,0-21-9.45-21-21V54.75h-43.63V93c0,11.55-9.45,21-21,21l0,0c-11.55,0-21-9.45-21-21V54.75H87.18
		V93c0,11.55-9.45,21-21,21l0,0c-11.55,0-21-9.45-21-21V54.75h-8.05C18.36,54.75,3,70.11,3,88.88v399.5
		c0,18.77,15.36,34.12,34.12,34.12h315c18.77,0,34.12-15.36,34.12-34.12V88.88C386.25,70.11,370.89,54.75,352.12,54.75z"/>
	<rect x="63.38" y="202.17" class="st0" width="262.5" height="22.38"/>
	<rect x="63.38" y="266.8" class="st0" width="262.5" height="22.38"/>
	<rect x="63.38" y="331.42" class="st0" width="262.5" height="22.38"/>
	<path class="st0" d="M68.25,106.5h-5.63c-6.85,0-12.46-5.61-12.46-12.46V15.46C50.17,8.61,55.78,3,62.63,3h5.63
		c6.85,0,12.46,5.61,12.46,12.46v78.58C80.71,100.89,75.1,106.5,68.25,106.5z"/>
	<path class="st0" d="M154.25,106.5h-5.63c-6.85,0-12.46-5.61-12.46-12.46V15.46c0-6.85,5.61-12.46,12.46-12.46h5.63
		c6.85,0,12.46,5.61,12.46,12.46v78.58C166.71,100.89,161.1,106.5,154.25,106.5z"/>
	<path class="st0" d="M240,106.5h-5.63c-6.85,0-12.46-5.61-12.46-12.46V15.46c0-6.85,5.61-12.46,12.46-12.46H240
		c6.85,0,12.46,5.61,12.46,12.46v78.58C252.46,100.89,246.85,106.5,240,106.5z"/>
	<path class="st0" d="M325.75,106.5h-5.63c-6.85,0-12.46-5.61-12.46-12.46V15.46c0-6.85,5.61-12.46,12.46-12.46h5.63
		c6.85,0,12.46,5.61,12.46,12.46v78.58C338.21,100.89,332.6,106.5,325.75,106.5z"/>
	<rect x="63.38" y="396.05" class="st0" width="262.5" height="22.38"/>
</g>
</svg>
