<?xml version="1.0" encoding="utf-8"?>
<!-- Generator: Adobe Illustrator 25.0.1, SVG Export Plug-In . SVG Version: 6.00 Build 0)  -->
<svg version="1.1" id="Layer_1" xmlns="http://www.w3.org/2000/svg" xmlns:xlink="http://www.w3.org/1999/xlink" x="0px" y="0px"
	 viewBox="0 0 387.25 523.5" style="enable-background:new 0 0 387.25 523.5;" xml:space="preserve">
<style type="text/css">
	.st0{fill:none;stroke:#000000;stroke-width:4;stroke-miterlimit:10;}
</style>
<g>
	<path class="st0" d="M351.12,53.75h-8.05V92c0,11.55-9.45,21-21,21h0c-11.55,0-21-9.45-21-21V53.75h-43.63V92
		c0,11.55-9.45,21-21,21h0c-11.55,0-21-9.45-21-21V53.75h-43.63V92c0,11.55-9.45,21-21,21h0c-11.55,0-21-9.45-21-21V53.75H86.18V92
		c0,11.55-9.45,21-21,21h0c-11.55,0-21-9.45-21-21V53.75h-8.05C17.36,53.75,2,69.11,2,87.88v399.5c0,18.77,15.36,34.12,34.12,34.12
		h315c18.77,0,34.12-15.36,34.12-34.12V87.88C385.25,69.11,369.89,53.75,351.12,53.75z"/>
	<rect x="62.38" y="201.17" class="st0" width="262.5" height="22.38"/>
	<rect x="62.38" y="265.8" class="st0" width="262.5" height="22.38"/>
	<rect x="62.38" y="330.42" class="st0" width="262.5" height="22.38"/>
	<path class="st0" d="M67.25,105.5h-5.63c-6.85,0-12.46-5.61-12.46-12.46V14.46C49.17,7.61,54.78,2,61.63,2h5.63
		c6.85,0,12.46,5.61,12.46,12.46v78.58C79.71,99.89,74.1,105.5,67.25,105.5z"/>
	<path class="st0" d="M153.25,105.5h-5.63c-6.85,0-12.46-5.61-12.46-12.46V14.46c0-6.85,5.61-12.46,12.46-12.46h5.63
		c6.85,0,12.46,5.61,12.46,12.46v78.58C165.71,99.89,160.1,105.5,153.25,105.5z"/>
	<path class="st0" d="M239,105.5h-5.63c-6.85,0-12.46-5.61-12.46-12.46V14.46c0-6.85,5.61-12.46,12.46-12.46H239
		c6.85,0,12.46,5.61,12.46,12.46v78.58C251.46,99.89,245.85,105.5,239,105.5z"/>
	<path class="st0" d="M324.75,105.5h-5.63c-6.85,0-12.46-5.61-12.46-12.46V14.46c0-6.85,5.61-12.46,12.46-12.46h5.63
		c6.85,0,12.46,5.61,12.46,12.46v78.58C337.21,99.89,331.6,105.5,324.75,105.5z"/>
	<rect x="62.38" y="395.05" class="st0" width="262.5" height="22.38"/>
</g>
</svg>
