<?xml version="1.0" encoding="utf-8"?>
<!-- Generator: Adobe Illustrator 25.0.1, SVG Export Plug-In . SVG Version: 6.00 Build 0)  -->
<svg version="1.1" id="Layer_1" xmlns="http://www.w3.org/2000/svg" xmlns:xlink="http://www.w3.org/1999/xlink" x="0px" y="0px"
	 viewBox="0 0 348.1 470.8" style="enable-background:new 0 0 348.1 470.8;" xml:space="preserve">
<style type="text/css">
	.st0{fill:url(#SVGID_1_);stroke:url(#SVGID_2_);stroke-width:3;stroke-miterlimit:10;}
	.st1{fill:url(#SVGID_3_);}
	.st2{fill:url(#SVGID_4_);}
	.st3{fill:url(#SVGID_5_);}
	.st4{fill:url(#SVGID_6_);stroke:url(#SVGID_7_);stroke-width:3;stroke-miterlimit:10;}
	.st5{fill:url(#SVGID_8_);stroke:url(#SVGID_9_);stroke-width:3;stroke-miterlimit:10;}
	.st6{fill:url(#SVGID_10_);stroke:url(#SVGID_11_);stroke-width:3;stroke-miterlimit:10;}
	.st7{fill:url(#SVGID_12_);stroke:url(#SVGID_13_);stroke-width:3;stroke-miterlimit:10;}
	.st8{fill:url(#SVGID_14_);}
</style>
<g>
	<linearGradient id="SVGID_1_" gradientUnits="userSpaceOnUse" x1="170.9716" y1="563.0064" x2="175.5015" y2="113.1682">
		<stop  offset="0" style="stop-color:#FFFFFF;stop-opacity:0"/>
		<stop  offset="1" style="stop-color:#FFFFFF;stop-opacity:0.7"/>
	</linearGradient>
	<linearGradient id="SVGID_2_" gradientUnits="userSpaceOnUse" x1="0" y1="258.6725" x2="348.0725" y2="258.6725">
		<stop  offset="0" style="stop-color:#FFFFFF;stop-opacity:0"/>
		<stop  offset="1" style="stop-color:#FFFFFF;stop-opacity:0.4"/>
	</linearGradient>
	<path class="st0" d="M315.8,48.1h-7.3v34.4c0,10.4-8.5,18.9-18.9,18.9h0c-10.4,0-18.9-8.5-18.9-18.9V48.1h-39.3v34.4
		c0,10.4-8.5,18.9-18.9,18.9h0c-10.4,0-18.9-8.5-18.9-18.9V48.1h-39.3v34.4c0,10.4-8.5,18.9-18.9,18.9h0c-10.4,0-18.9-8.5-18.9-18.9
		V48.1H77.3v34.4c0,10.4-8.5,18.9-18.9,18.9h0c-10.4,0-18.9-8.5-18.9-18.9V48.1h-7.3c-16.9,0-30.7,13.8-30.7,30.7v359.7
		c0,16.9,13.8,30.7,30.7,30.7h283.6c16.9,0,30.7-13.8,30.7-30.7V78.8C346.6,61.9,332.7,48.1,315.8,48.1z"/>
	<linearGradient id="SVGID_3_" gradientUnits="userSpaceOnUse" x1="55.8607" y1="190.9045" x2="292.2118" y2="190.9045">
		<stop  offset="0.1055" style="stop-color:#1A1A1A;stop-opacity:0.4"/>
		<stop  offset="0.6159" style="stop-color:#1A1A1A;stop-opacity:0.8"/>
	</linearGradient>
	<rect x="55.9" y="180.8" class="st1" width="236.4" height="20.1"/>
	<linearGradient id="SVGID_4_" gradientUnits="userSpaceOnUse" x1="55.8607" y1="249.0918" x2="292.2118" y2="249.0918">
		<stop  offset="0.1055" style="stop-color:#1A1A1A;stop-opacity:0.4"/>
		<stop  offset="0.6159" style="stop-color:#1A1A1A;stop-opacity:0.8"/>
	</linearGradient>
	<rect x="55.9" y="239" class="st2" width="236.4" height="20.1"/>
	<linearGradient id="SVGID_5_" gradientUnits="userSpaceOnUse" x1="55.8607" y1="307.2791" x2="292.2118" y2="307.2791">
		<stop  offset="0.1055" style="stop-color:#1A1A1A;stop-opacity:0.4"/>
		<stop  offset="0.6159" style="stop-color:#1A1A1A;stop-opacity:0.8"/>
	</linearGradient>
	<rect x="55.9" y="297.2" class="st3" width="236.4" height="20.1"/>
	<linearGradient id="SVGID_6_" gradientUnits="userSpaceOnUse" x1="41.2695" y1="48.0949" x2="68.7675" y2="48.0949">
		<stop  offset="0" style="stop-color:#FFFFFF;stop-opacity:0"/>
		<stop  offset="1" style="stop-color:#FFFFFF;stop-opacity:0.7"/>
	</linearGradient>
	<linearGradient id="SVGID_7_" gradientUnits="userSpaceOnUse" x1="42.4707" y1="48.0949" x2="72.9687" y2="48.0949">
		<stop  offset="0" style="stop-color:#FFFFFF;stop-opacity:0"/>
		<stop  offset="0.4072" style="stop-color:#FFFFFF;stop-opacity:0.4"/>
	</linearGradient>
	<path class="st4" d="M59,94.7h-2.6c-6.9,0-12.5-5.6-12.5-12.5V14c0-6.9,5.6-12.5,12.5-12.5H59c6.9,0,12.5,5.6,12.5,12.5v68.3
		C71.5,89.1,65.9,94.7,59,94.7z"/>
	<linearGradient id="SVGID_8_" gradientUnits="userSpaceOnUse" x1="118.7026" y1="48.0949" x2="146.2006" y2="48.0949">
		<stop  offset="0" style="stop-color:#FFFFFF;stop-opacity:0"/>
		<stop  offset="1" style="stop-color:#FFFFFF;stop-opacity:0.7"/>
	</linearGradient>
	<linearGradient id="SVGID_9_" gradientUnits="userSpaceOnUse" x1="119.9038" y1="48.0949" x2="150.4018" y2="48.0949">
		<stop  offset="0" style="stop-color:#FFFFFF;stop-opacity:0"/>
		<stop  offset="0.4072" style="stop-color:#FFFFFF;stop-opacity:0.4"/>
	</linearGradient>
	<path class="st5" d="M136.4,94.7h-2.6c-6.9,0-12.5-5.6-12.5-12.5V14c0-6.9,5.6-12.5,12.5-12.5h2.6c6.9,0,12.5,5.6,12.5,12.5v68.3
		C148.9,89.1,143.3,94.7,136.4,94.7z"/>
	<linearGradient id="SVGID_10_" gradientUnits="userSpaceOnUse" x1="195.9106" y1="48.0949" x2="223.4086" y2="48.0949">
		<stop  offset="0" style="stop-color:#FFFFFF;stop-opacity:0"/>
		<stop  offset="1" style="stop-color:#FFFFFF;stop-opacity:0.7"/>
	</linearGradient>
	<linearGradient id="SVGID_11_" gradientUnits="userSpaceOnUse" x1="197.1118" y1="48.0949" x2="227.6098" y2="48.0949">
		<stop  offset="0" style="stop-color:#FFFFFF;stop-opacity:0"/>
		<stop  offset="0.4072" style="stop-color:#FFFFFF;stop-opacity:0.4"/>
	</linearGradient>
	<path class="st6" d="M213.7,94.7h-2.6c-6.9,0-12.5-5.6-12.5-12.5V14c0-6.9,5.6-12.5,12.5-12.5h2.6c6.9,0,12.5,5.6,12.5,12.5v68.3
		C226.1,89.1,220.5,94.7,213.7,94.7z"/>
	<linearGradient id="SVGID_12_" gradientUnits="userSpaceOnUse" x1="273.1187" y1="48.0949" x2="300.6166" y2="48.0949">
		<stop  offset="0" style="stop-color:#FFFFFF;stop-opacity:0"/>
		<stop  offset="1" style="stop-color:#FFFFFF;stop-opacity:0.7"/>
	</linearGradient>
	<linearGradient id="SVGID_13_" gradientUnits="userSpaceOnUse" x1="274.3198" y1="48.0949" x2="304.8178" y2="48.0949">
		<stop  offset="0" style="stop-color:#FFFFFF;stop-opacity:0"/>
		<stop  offset="0.4072" style="stop-color:#FFFFFF;stop-opacity:0.4"/>
	</linearGradient>
	<path class="st7" d="M290.9,94.7h-2.6c-6.9,0-12.5-5.6-12.5-12.5V14c0-6.9,5.6-12.5,12.5-12.5h2.6c6.9,0,12.5,5.6,12.5,12.5v68.3
		C303.3,89.1,297.7,94.7,290.9,94.7z"/>
	<linearGradient id="SVGID_14_" gradientUnits="userSpaceOnUse" x1="55.8607" y1="365.4664" x2="292.2118" y2="365.4664">
		<stop  offset="0.1055" style="stop-color:#1A1A1A;stop-opacity:0.4"/>
		<stop  offset="0.6159" style="stop-color:#1A1A1A;stop-opacity:0.8"/>
	</linearGradient>
	<rect x="55.9" y="355.4" class="st8" width="236.4" height="20.1"/>
</g>
</svg>
